<?xml version="1.0" standalone="no"?>
<!DOCTYPE svg PUBLIC "-//W3C//DTD SVG 20010904//EN"
 "http://www.w3.org/TR/2001/REC-SVG-20010904/DTD/svg10.dtd">
<svg version="1.0" xmlns="http://www.w3.org/2000/svg"
 width="540.000000pt" height="540.000000pt" viewBox="0 0 540.000000 540.000000"
 preserveAspectRatio="xMidYMid meet">
<metadata>
Created by potrace 1.11, written by Peter Selinger 2001-2013
</metadata>
<g transform="translate(0.000000,540.000000) scale(0.100000,-0.100000)"
fill="#000000" stroke="none">
<path d="M900 5245 l0 -155 2070 0 c2057 0 2070 0 2090 -20 20 -20 20 -33 20
-2085 l0 -2065 160 0 160 0 -2 2179 -3 2179 -30 43 c-16 23 -46 50 -65 60 -33
18 -111 19 -2217 19 l-2183 0 0 -155z"/>
<path d="M102 4739 c-26 -13 -55 -39 -70 -62 l-27 -41 -3 -2235 c-2 -1567 0
-2247 8 -2273 6 -20 22 -51 36 -68 55 -65 -138 -60 2335 -60 l2252 0 41 24
c23 13 51 42 64 64 l22 40 0 2245 c0 1566 -3 2254 -11 2274 -15 40 -48 73 -94
94 -39 18 -123 19 -2275 19 l-2235 0 -43 -21z"/>
</g>
</svg>
